{"title":"Official Formula 1 Season Review 2007","uid":8786561,"size":3225152089,"categoryP":"video","categoryS":"other","magnet":"?xt=urn:btih:599dde4d64230108bf0e5235b08190afc4b32259&amp;dn=Official+Formula+1+Season+Review+2007&amp;tr=udp%3A%2F%2Ftracker.openbittorrent.com%3A80&amp;tr=udp%3A%2F%2Fopen.demonii.com%3A1337&amp;tr=udp%3A%2F%2Ftracker.coppersurfer.tk%3A6969&amp;tr=udp%3A%2F%2Fexodus.desync.com%3A6969","seeders":1,"leechers":1,"uploader":"minhthai911","files":2,"time":1375839428,"description":"General\nComplete name                            : f12007sr.mkv\nFormat                                   : Matroska\nFile size                                : 2.79 GiB\nDuration                                 : 3h 22mn\nOverall bit rate                         : 1 975 Kbps\n\nVideo\nID                                       : 1\nFormat                                   : AVC\nFormat/Info                              : Advanced Video Codec\nFormat profile                           : &lt;a class=&quot;__cf_email__&quot; href=&quot;/cdn-cgi/l/email-protection&quot; data-cfemail=&quot;c58daca2ad8589f6ebf5&quot;&gt;[email&amp;#160;protected]&lt;/a&gt;&lt;script cf-hash='f9e31' type=&quot;text/javascript&quot;&gt;\n/* &lt;![CDATA[ */!function(){try{var t=&quot;currentScript&quot;in document?document.currentScript:function(){for(var t=document.getElementsByTagName(&quot;script&quot;),e=t.length;e--;)if(t[e].getAttribute(&quot;cf-hash&quot;))return t[e]}();if(t&amp;&amp;t.previousSibling){var e,r,n,i,c=t.previousSibling,a=c.getAttribute(&quot;data-cfemail&quot;);if(a){for(e=&quot;&quot;,r=parseInt(a.substr(0,2),16),n=2;a.length-n;n+=2)i=parseInt(a.substr(n,2),16)^r,e+=String.fromCharCode(i);e=document.createTextNode(e),c.parentNode.replaceChild(e,c)}}}catch(u){}}();/* ]]&gt; */&lt;/script&gt;\nFormat settings, CABAC                   : Yes\nFormat settings, ReFrames                : 4 frames\nCodec ID                                 : V_MPEG4/ISO/AVC\nDuration                                 : 3h 22mn\nBit rate                                 : 1 743 Kbps\nWidth                                    : 720 pixels\nHeight                                   : 576 pixels\nDisplay aspect ratio                     : 16:9\nFrame rate mode                          : Constant\nFrame rate                               : 25.000 fps\nStandard                                 : PAL\nColor space                              : YUV\nChroma subsampling                       : 4:2:0\nBit depth                                : 8 bits\nScan type                                : MBAFF\nBits/(Pixel*Frame)                       : 0.168\nStream size                              : 2.47 GiB (88%)\n\nAudio\nID                                       : 2\nFormat                                   : AC-3\nFormat/Info                              : Audio Coding 3\nMode extension                           : CM (complete main)\nFormat settings, Endianness              : Big\nCodec ID                                 : A_AC3\nDuration                                 : 3h 22mn\nBit rate mode                            : Constant\nBit rate                                 : 192 Kbps\nChannel count                            : 2 channels\nChannel positions                        : Front: L R\nSampling rate                            : 48.0 KHz\nBit depth                                : 16 bits\nCompression mode                         : Lossy\nStream size                              : 278 MiB (10%)\nTitle                                    : 2/0\nLanguage                                 : English\n\nMenu\n00:00:00.000                             : en:Chapter 01\n00:01:50.600                             : en:Chapter 02\n00:08:19.000                             : en:Chapter 03\n00:14:12.080                             : en:Chapter 04\n00:16:09.800                             : en:Chapter 05\n00:24:34.320                             : en:Chapter 06\n00:31:15.240                             : en:Chapter 07\n00:32:24.440                             : en:Chapter 08\n00:34:51.240                             : en:Chapter 09\n00:39:40.920                             : en:Chapter 10\n00:41:40.080                             : en:Chapter 11\n00:43:45.680                             : en:Chapter 12\n00:50:21.960                             : en:Chapter 13\n00:50:55.400                             : en:Chapter 14\n00:57:48.640                             : en:Chapter 15\n01:02:12.160                             : en:Chapter 16\n01:03:46.800                             : en:Chapter 17\n01:08:51.800                             : en:Chapter 18\n01:18:02.560                             : en:Chapter 19\n01:19:37.800                             : en:Chapter 20\n01:22:27.480                             : en:Chapter 21\n01:28:05.600                             : en:Chapter 22\n01:29:46.680                             : en:Chapter 23\n01:32:18.520                             : en:Chapter 24\n01:36:47.640                             : en:Chapter 25\n01:40:57.040                             : en:Chapter 26\n01:44:18.560                             : en:Chapter 27\n01:49:05.520                             : en:Chapter 28\n01:50:00.640                             : en:Chapter 29\n01:53:08.080                             : en:Chapter 30\n02:01:54.920                             : en:Chapter 31\n02:03:53.520                             : en:Chapter 32\n02:09:05.560                             : en:Chapter 33\n02:12:13.800                             : en:Chapter 34\n02:14:14.480                             : en:Chapter 35\n02:21:02.960                             : en:Chapter 36\n02:25:20.520                             : en:Chapter 37\n02:28:05.880                             : en:Chapter 38\n02:29:31.960                             : en:Chapter 39\n02:33:40.760                             : en:Chapter 40\n02:34:15.800                             : en:Chapter 41\n02:37:55.480                             : en:Chapter 42\n02:42:46.720                             : en:Chapter 43\n02:43:45.000                             : en:Chapter 44\n02:47:24.320                             : en:Chapter 45\n02:55:51.200                             : en:Chapter 46\n02:57:24.880                             : en:Chapter 47\n02:58:37.920                             : en:Chapter 48\n03:05:20.720                             : en:Chapter 49\n03:05:47.160                             : en:Chapter 50\n03:09:01.600                             : en:Chapter 51\n03:16:59.360                             : en:Chapter 52\n\n","torrent":{"xt":"urn:btih:599dde4d64230108bf0e5235b08190afc4b32259","amp;dn":"Official+Formula+1+Season+Review+2007","amp;tr":["udp%3A%2F%2Ftracker.openbittorrent.com%3A80","udp%3A%2F%2Fopen.demonii.com%3A1337","udp%3A%2F%2Ftracker.coppersurfer.tk%3A6969","udp%3A%2F%2Fexodus.desync.com%3A6969"],"infoHash":"599dde4d64230108bf0e5235b08190afc4b32259","infoHashBuffer":{"type":"Buffer","data":[89,157,222,77,100,35,1,8,191,14,82,53,176,129,144,175,196,179,34,89]},"announce":[],"urlList":[]}}